<svg id="Camada_1" data-name="Camada 1" xmlns="http://www.w3.org/2000/svg" viewBox="0 0 1522.96 311.81"><defs><style>.cls-1{fill:#6fcaf3;}.cls-2{fill:#fff;}.cls-3{fill:#010101;}.cls-4{fill:#a8dcf8;}.cls-5{fill:#4eb5e0;}.cls-6{fill:#098bc1;}.cls-7{fill:#2573b9;}</style></defs><path class="cls-1" d="M129.79,106.41V314.83H97.34V106.41H21.73V77.21H208.8v29.2Z" transform="translate(-21.73 -15.03)"/><path class="cls-1" d="M368,314.83l-63.43-102q-10.87,0-34.4-1.63V314.83H237.67V77.21q1.79,0,25.23-1.22t34.15-1.21q85.67,0,85.66,68.12a64.4,64.4,0,0,1-13.79,40.31q-13.79,17.91-32.77,22.3l69,109.32ZM270.12,106.41v77.2a165.35,165.35,0,0,0,22.71,1.62q29.21,0,42.51-9.4t13.3-33.58q0-20-14.27-28.71t-45.1-8.76Q284.4,104.78,270.12,106.41Z" transform="translate(-21.73 -15.03)"/><path class="cls-1" d="M435.12,314.83V77.21h32.45V314.83Z" transform="translate(-21.73 -15.03)"/><path class="cls-2" d="M726.07,77.21h32.45V239.89q0,21.74,13.79,35.77t36.51,14q24,0,37.8-13.63t13.79-37V77.21h32.44V242.49q0,36-22.46,56.2t-61.25,20.19q-39.92,0-61.49-19.79t-21.58-56.76Z" transform="translate(-21.73 -15.03)"/><path class="cls-2" d="M981.21,314.83H933.35V77.21q45.75-1.62,58.57-1.62,49.8,0,78.85,30.25t29,80.53Q1099.81,314.83,981.21,314.83ZM965.8,106.41V284a187.16,187.16,0,0,0,26.93,1.62q34.07,0,53.54-25.54t19.47-71q0-84.34-75.77-84.35Q985.43,104.78,965.8,106.41Z" transform="translate(-21.73 -15.03)"/><path class="cls-2" d="M1142.8,314.83V77.21h32.45V314.83Z" transform="translate(-21.73 -15.03)"/><path class="cls-3" d="M1218.24,194q0-51.57,25.88-86.29T1314,73q49.49,0,75.85,32t26.36,89q0,58.56-26.44,91.72T1314,318.88q-44.94,0-70.33-35T1218.24,194Zm34.07,0q0,40.88,16.14,68.29T1314,289.69q33.26,0,50.7-25.14T1382.1,194q0-91.8-68.14-91.8-30.18,0-45.91,24.65T1252.31,194Z" transform="translate(-21.73 -15.03)"/><path class="cls-4" d="M1471.82,131.92l-.19-.48c-.31-.81-.64-1.62-1-2.44l-.32-.74c-.31-.72-.63-1.45-1-2.17-.14-.3-.29-.6-.43-.91-.32-.67-.64-1.34-1-2-.17-.33-.34-.67-.52-1-.33-.64-.67-1.28-1-1.92l-.6-1.07c-.35-.62-.7-1.23-1.07-1.84-.22-.38-.44-.75-.67-1.12-.36-.6-.74-1.2-1.13-1.8-.24-.38-.48-.76-.73-1.14l-1.22-1.8c-.26-.37-.51-.75-.78-1.12-.43-.61-.88-1.22-1.34-1.83l-.79-1.08c-.51-.66-1-1.33-1.57-2-.24-.29-.46-.59-.7-.88-.79-1-1.59-1.92-2.42-2.88C1446.7,94,1407,48.41,1342.56,48.39l-3.08,0a141.74,141.74,0,0,0-29.3,3.78c-31.35,7.41-59.68,25.24-77.69,49.89-.63.87-1.25,1.75-1.84,2.63-.2.29-.39.59-.58.88-.39.59-.78,1.18-1.15,1.77-.23.36-.45.72-.67,1.09-.32.52-.64,1.05-.94,1.58s-.46.8-.69,1.2-.55,1-.81,1.49-.46.85-.68,1.28-.47.94-.7,1.41-.45.91-.66,1.37-.43.95-.65,1.43c-.5,1.08-.93,2.19-1.38,3.3l-.21.52c-.25.64-.48,1.28-.71,1.92l-.28.81c-.23.65-.44,1.31-.65,2-.08.25-.16.5-.23.74-.21.69-.41,1.38-.61,2.07,0,.19-.09.37-.14.55-.21.76-.4,1.52-.58,2.28v0a76.48,76.48,0,0,0-1.74,10.56v0h0c-.23,2.43-.36,4.87-.36,7.31V284c0,.72,0,1.44.07,2.14,0,.12,0,.23,0,.35.05.59.1,1.18.19,1.76,0,.25.08.48.12.73.08.45.15.91.24,1.36.06.29.15.58.22.87s.18.78.29,1.18.2.62.3.94.22.72.35,1.07.26.69.4,1,.24.63.37.95.35.73.52,1.1.25.56.39.83.42.78.63,1.16.26.5.41.74c.24.41.5.82.76,1.22.13.21.25.42.39.63.29.43.59.84.9,1.26.12.18.24.36.38.54.33.44.68.87,1,1.3.12.15.23.31.36.46.38.45.78.9,1.19,1.34l.31.36c.43.46.88.91,1.34,1.37l.27.27c.49.47,1,.93,1.5,1.39.08.07.14.14.22.2.53.47,1.08.93,1.65,1.39l.17.14c.59.47,1.19.94,1.81,1.39l.1.08c.64.47,1.3.93,2,1.37l0,0c10.39,6.93,24.28,11.31,39.68,11.69l7.69.19c37.44.91,74.11-7.82,102.91-24.66A232.72,232.72,0,0,0,1424,274.18l.22-.2c1.42-1.29,2.82-2.6,4.22-4l.47-.45q1.93-1.87,3.83-3.83l.72-.74c1.17-1.21,2.31-2.44,3.45-3.69l.93-1q1.58-1.77,3.11-3.59l1.09-1.28c1-1.16,1.9-2.36,2.84-3.55.38-.49.78-1,1.15-1.46.93-1.22,1.84-2.47,2.74-3.72.35-.49.71-1,1.06-1.45,1.2-1.72,2.37-3.46,3.52-5.24,0,0,0,0,.06-.09a170.25,170.25,0,0,0,13.21-24.56,147.79,147.79,0,0,0,6.54-18.18,126.58,126.58,0,0,0,3.11-13.64c.15-.93.3-1.86.43-2.8C1478.89,165.58,1478.24,148.82,1471.82,131.92Z" transform="translate(-21.73 -15.03)"/><path class="cls-1" d="M1471.82,131.92l-.19-.48c-.31-.81-.64-1.62-1-2.44l-.32-.74c-.31-.72-.63-1.45-1-2.17l-.43-.91c-.32-.67-.64-1.34-1-2-.17-.33-.34-.67-.52-1-.33-.64-.67-1.28-1-1.92l-.6-1.07c-.35-.62-.7-1.23-1.07-1.84-.22-.38-.44-.75-.67-1.12-.36-.6-.74-1.2-1.13-1.8-.24-.38-.48-.76-.73-1.14l-1.22-1.8c-.26-.37-.51-.75-.78-1.12-.43-.61-.88-1.22-1.34-1.83l-.79-1.08c-.51-.66-1-1.33-1.57-2-.24-.29-.46-.59-.7-.88-.79-1-1.59-1.92-2.42-2.88C1446.7,94,1407,48.41,1342.56,48.39l-3.08,0a141.74,141.74,0,0,0-29.3,3.78l-.06,0c.7.45,1.4.9,2.08,1.36l.42.28c15,10.17,25.1,23.53,32,37.2.42.85.84,1.7,1.25,2.55a130.13,130.13,0,0,1,5.27,13,149.78,149.78,0,0,1,5.06,18.64,168.26,168.26,0,0,1,3.25,27.7.45.45,0,0,1,0,.11q.12,3.16.11,6.31c0,.6,0,1.2,0,1.8,0,1.54,0,3.08-.11,4.61,0,.62-.08,1.23-.11,1.86-.08,1.51-.17,3-.29,4.54,0,.56-.11,1.11-.16,1.67-.15,1.58-.3,3.15-.49,4.72l-.18,1.37c-.21,1.67-.45,3.35-.71,5,0,.34-.11.67-.16,1q-.43,2.69-.95,5.33l-.12.65q-.57,2.85-1.2,5.65c0,.1,0,.19-.07.29a232,232,0,0,1-15.58,45c-14,30.31-39,58.48-70.19,79.2l-5.38,3.57a85.34,85.34,0,0,0,11,1l7.69.19c37.44.91,74.11-7.82,102.91-24.66A232.72,232.72,0,0,0,1424,274.18l.22-.2c1.42-1.29,2.82-2.6,4.22-4l.47-.45q1.93-1.87,3.83-3.83l.72-.74c1.17-1.21,2.31-2.44,3.45-3.69l.93-1q1.58-1.77,3.11-3.59l1.09-1.28c1-1.16,1.9-2.36,2.84-3.55.38-.49.78-1,1.15-1.47.93-1.21,1.84-2.46,2.74-3.71.35-.49.71-1,1.06-1.45,1.2-1.72,2.37-3.46,3.52-5.24,0,0,0,0,.06-.08a171.13,171.13,0,0,0,13.21-24.57,147.79,147.79,0,0,0,6.54-18.18,126,126,0,0,0,3.11-13.64c.15-.93.3-1.86.43-2.8C1478.89,165.58,1478.24,148.82,1471.82,131.92Z" transform="translate(-21.73 -15.03)"/><path class="cls-5" d="M1471.82,131.92l-.19-.48c-.31-.81-.64-1.62-1-2.44l-.32-.74c-.31-.72-.63-1.45-1-2.17l-.43-.91c-.32-.67-.64-1.34-1-2-.17-.33-.34-.67-.52-1-.33-.64-.67-1.28-1-1.92l-.6-1.07c-.35-.62-.7-1.23-1.07-1.84-.22-.38-.44-.75-.67-1.12-.36-.6-.74-1.2-1.13-1.8-.24-.38-.48-.76-.73-1.14l-1.22-1.8c-.26-.37-.51-.75-.78-1.12-.43-.61-.88-1.22-1.34-1.83l-.79-1.08c-.51-.66-1-1.33-1.57-2-.24-.29-.46-.59-.7-.88-.79-1-1.59-1.92-2.42-2.88C1446.7,94,1407,48.41,1342.56,48.39l-3.08,0a141.74,141.74,0,0,0-29.3,3.78c-31.35,7.41-59.68,25.24-77.69,49.89-.64.87-1.25,1.75-1.84,2.63-.2.29-.39.59-.58.88-.39.59-.78,1.18-1.15,1.77-.23.36-.45.72-.67,1.09-.32.52-.64,1.05-.94,1.58s-.46.8-.69,1.2-.55,1-.81,1.49-.46.85-.67,1.28-.48.94-.71,1.41-.45.91-.66,1.37-.43.95-.65,1.43c-.5,1.08-.93,2.19-1.38,3.3l-.21.52c-.25.64-.48,1.28-.71,1.92l-.28.81c-.23.65-.44,1.31-.65,2-.08.25-.16.5-.23.74-.21.69-.41,1.38-.61,2.07,0,.19-.09.37-.14.55-.21.76-.4,1.52-.58,2.28v0a76.48,76.48,0,0,0-1.74,10.56v0h0c-.23,2.43-.36,4.87-.36,7.31v60.14a144.38,144.38,0,0,1,19.88-6.28,141.56,141.56,0,0,1,29.29-3.78l3.09,0c64.39,0,104.13,45.61,110.84,53.3.83,1,1.64,1.92,2.42,2.88.24.29.47.59.7.88.54.67,1.07,1.34,1.57,2,.28.36.53.72.8,1.08l1.34,1.83.78,1.12c.41.6.82,1.2,1.21,1.8.26.38.5.76.74,1.14.38.6.76,1.2,1.13,1.8.23.37.45.74.67,1.12.36.61.72,1.22,1.07,1.84.2.36.4.71.59,1.07q.53,1,1,1.92c.17.33.35.67.51,1q.51,1,1,2l.42.91c.34.72.65,1.45,1,2.17.1.25.21.5.32.74.34.82.66,1.63,1,2.44l.18.48a89.65,89.65,0,0,1,2.81,8.7A220.84,220.84,0,0,0,1424,274.18l.22-.2c1.42-1.29,2.82-2.6,4.22-4l.47-.45q1.93-1.87,3.83-3.83l.72-.74c1.17-1.21,2.31-2.44,3.45-3.69l.93-1q1.58-1.77,3.11-3.59l1.09-1.28c1-1.16,1.9-2.36,2.84-3.55.38-.49.78-1,1.15-1.47.93-1.21,1.84-2.46,2.74-3.71.35-.49.71-1,1.06-1.45,1.2-1.72,2.37-3.46,3.52-5.24,0,0,0,0,.06-.08a171.13,171.13,0,0,0,13.21-24.57,147.79,147.79,0,0,0,6.54-18.18,126,126,0,0,0,3.11-13.64c.15-.93.3-1.86.43-2.8C1478.89,165.58,1478.24,148.82,1471.82,131.92Z" transform="translate(-21.73 -15.03)"/><path class="cls-6" d="M1471.82,131.92l-.19-.48c-.31-.81-.64-1.62-1-2.44l-.32-.74c-.31-.72-.63-1.45-1-2.17l-.43-.91c-.32-.67-.64-1.34-1-2-.17-.33-.34-.67-.52-1-.33-.64-.67-1.28-1-1.92l-.6-1.07c-.35-.62-.7-1.23-1.07-1.84-.22-.38-.44-.75-.67-1.12-.36-.6-.74-1.2-1.13-1.8-.24-.38-.48-.76-.73-1.14l-1.22-1.8c-.26-.37-.51-.75-.78-1.12-.43-.61-.88-1.22-1.34-1.83l-.79-1.08c-.51-.66-1-1.33-1.57-2-.24-.29-.46-.59-.7-.88-.79-1-1.59-1.92-2.42-2.88C1446.7,94,1407,48.41,1342.56,48.39l-3.08,0a141.74,141.74,0,0,0-29.3,3.78c-31.35,7.41-59.68,25.24-77.69,49.89-.64.87-1.25,1.75-1.84,2.63-.2.29-.39.59-.58.88-.39.59-.78,1.18-1.15,1.77-.23.36-.45.72-.67,1.09-.32.52-.64,1.05-.94,1.58s-.46.8-.69,1.2-.55,1-.81,1.49-.46.85-.67,1.28-.48.94-.71,1.41-.45.91-.66,1.37-.43.95-.65,1.43c-.5,1.08-.93,2.19-1.38,3.3l-.21.52c-.25.64-.48,1.28-.71,1.92l-.28.81c-.23.65-.44,1.31-.65,2-.08.25-.16.5-.23.74-.21.69-.41,1.38-.61,2.07,0,.19-.09.37-.14.55-.21.76-.4,1.52-.58,2.28v0a76.48,76.48,0,0,0-1.74,10.56v0h0c-.23,2.43-.36,4.87-.36,7.31V210c.2-.44.4-.9.61-1.35s.44-.91.66-1.36.46-1,.7-1.42l.67-1.27c.27-.5.54-1,.82-1.5s.45-.79.68-1.19.63-1.06,1-1.59c.22-.36.44-.72.67-1.08.37-.6.75-1.19,1.14-1.78l.58-.87c.6-.88,1.21-1.76,1.85-2.63,18-24.66,46.33-42.48,77.69-49.89a140.88,140.88,0,0,1,29.29-3.78l3.09,0c64.39,0,104.13,45.61,110.84,53.3.84,1,1.64,1.91,2.42,2.87.24.3.47.6.71.89.53.67,1.06,1.33,1.57,2l.79,1.07c.45.61.91,1.22,1.34,1.83.27.38.52.76.78,1.13l1.22,1.79c.25.38.49.76.73,1.14.38.6.76,1.2,1.13,1.8l.67,1.12,1.07,1.84c.2.36.4.72.59,1.08.35.64.69,1.27,1,1.91l.52,1c.33.67.66,1.34,1,2l.42.9c.34.73.66,1.45,1,2.18.1.25.21.49.32.74l.17.44c.91-1.88,1.83-3.87,2.74-6a147.79,147.79,0,0,0,6.54-18.18,126,126,0,0,0,3.11-13.64c.15-.93.3-1.86.43-2.8C1478.89,165.58,1478.24,148.82,1471.82,131.92Z" transform="translate(-21.73 -15.03)"/><path class="cls-7" d="M1471.82,131.92l-.19-.48c-.31-.81-.64-1.62-1-2.44l-.32-.74c-.31-.72-.63-1.45-1-2.17l-.43-.91c-.32-.67-.64-1.34-1-2-.17-.33-.34-.67-.52-1-.33-.64-.67-1.28-1-1.92l-.6-1.07c-.35-.62-.7-1.23-1.07-1.84-.22-.38-.44-.75-.67-1.12-.36-.6-.74-1.2-1.13-1.8-.24-.38-.48-.76-.73-1.14l-1.22-1.8c-.26-.37-.51-.75-.78-1.12-.43-.61-.88-1.22-1.34-1.83l-.79-1.08c-.51-.66-1-1.33-1.57-2-.24-.29-.46-.59-.7-.88-.79-1-1.59-1.92-2.42-2.88C1446.7,94,1407,48.41,1342.56,48.39l-3.08,0a139.89,139.89,0,0,0-18.66,1.69c41.46,9.64,66.89,48.32,71.68,55.61.68,1,1.34,2.07,2,3.12l.57,1c.43.72.87,1.44,1.28,2.16.23.39.44.78.65,1.17.37.66.74,1.32,1.1,2l.63,1.22c.34.65.68,1.3,1,2l.6,1.23c.31.65.62,1.3.92,1.95.19.41.37.81.55,1.22.3.66.59,1.33.87,2,.17.39.33.78.49,1.17.28.69.56,1.38.83,2.07l.42,1.09c.28.73.54,1.46.8,2.19.12.32.24.65.35,1,.27.78.53,1.57.79,2.35.09.27.17.54.26.81.28.88.54,1.76.8,2.64l.15.51c5.25,18.33,5.78,36.51,4,52.94-.11,1-.23,2-.36,3-.65,5.14-1.53,10.08-2.54,14.79A197.93,197.93,0,0,1,1403.3,229a208.44,208.44,0,0,1-10.8,26.63l0,.1q-1.4,2.88-2.88,5.67c-.28.53-.58,1-.86,1.58-.74,1.35-1.48,2.7-2.24,4-.31.54-.63,1.06-.94,1.59-.76,1.3-1.53,2.59-2.32,3.85-.29.47-.6.92-.89,1.38-.84,1.32-1.68,2.62-2.54,3.9l-.76,1.1q-1.39,2-2.82,4l-.59.8q-1.54,2.12-3.13,4.15l-.39.49c-1.13,1.46-2.28,2.88-3.44,4.28l-.18.21a201.25,201.25,0,0,1-28.1,27.58,175.9,175.9,0,0,0,45.06-18.17A232.72,232.72,0,0,0,1424,274.18l.22-.2c1.42-1.29,2.82-2.6,4.22-4l.47-.45q1.93-1.87,3.83-3.83l.72-.74c1.17-1.21,2.31-2.44,3.45-3.69l.93-1q1.58-1.77,3.11-3.59l1.09-1.28c1-1.16,1.9-2.36,2.84-3.55.38-.49.78-1,1.15-1.47.93-1.21,1.84-2.46,2.74-3.71.35-.49.71-1,1.06-1.45,1.2-1.72,2.37-3.46,3.52-5.24,0,0,0,0,.06-.08a171.13,171.13,0,0,0,13.21-24.57,147.79,147.79,0,0,0,6.54-18.18,126,126,0,0,0,3.11-13.64c.15-.93.3-1.86.43-2.8C1478.89,165.58,1478.24,148.82,1471.82,131.92Z" transform="translate(-21.73 -15.03)"/><path class="cls-1" d="M1428.87,60.52c-.7,2.1,11.3,5.1,25,16.74a103.37,103.37,0,0,1,20.52,24.36c11,17.19,13.64,30.75,15.85,30.22,1.89-.45,1.54-10.78-.42-19.51C1486.4,97.1,1478.13,87,1474,82.11c-5.1-6.06-11.89-13.94-23.44-18.7C1440.58,59.32,1429.52,58.55,1428.87,60.52Z" transform="translate(-21.73 -15.03)"/><path class="cls-5" d="M1439.85,37.19c-.85,2.54,13.67,6.17,30.27,20.27C1483,68.41,1490.6,80.11,1495,87c13.29,20.81,16.52,37.24,19.19,36.6,2.29-.55,1.87-13.06-.5-23.63-4.15-18.45-14.17-30.63-19.2-36.6-6.18-7.34-14.41-16.89-28.39-22.65C1454,35.73,1440.64,34.81,1439.85,37.19Z" transform="translate(-21.73 -15.03)"/><path class="cls-7" d="M1460.2,16.42c-.94,2.84,15.24,6.88,33.73,22.59,14.36,12.2,22.82,25.23,27.69,32.87,14.81,23.19,18.41,41.49,21.39,40.78,2.55-.62,2.08-14.56-.57-26.33-4.62-20.56-15.78-34.12-21.38-40.77-6.89-8.18-16-18.82-31.63-25.23C1476,14.8,1461.08,13.77,1460.2,16.42Z" transform="translate(-21.73 -15.03)"/><path class="cls-2" d="M671.58,314.53,556,269.53c-4.54,14-10.11,31-14.66,45l-35.21-.18,20.67-57.56,10.81-30L588.52,77.65l18.46-1q52.29,119,104.59,237.91Zm-104.77-75,94.52,38.05q-30-66.94-60-133.89Z" transform="translate(-21.73 -15.03)"/></svg>